<svg xmlns="http://www.w3.org/2000/svg" version="1.1" xmlns:xlink="http://www.w3.org/1999/xlink" xmlns:svgjs="http://svgjs.com/svgjs" viewBox="0 0 400 400" width="400" height="400"><g transform="matrix(4,0,0,4,0,0)"><path d="M5 75.98L7.903 75.98 16.613 75.98 30.403 75.98 39.113 75.98 42.452 75.98" fill="none" stroke="#7c7c7c" stroke-linecap="round" stroke-linejoin="round"></path><path d="M77.508,23.315a4.6,4.6,0,0,1-2.831,3.354L71.716,27.9,53.789,35.335l2.5-6.024L44.324,34.275l-1.306,5.516c-1.176,1.176-11.042,3.018-15.823,1.582a29.117,29.117,0,0,1-6.968-2.09,1.451,1.451,0,0,1-.769-.784l-.479-1.161a1.442,1.442,0,0,1,.784-1.887l.377-.16-2.975-7.2a1.441,1.441,0,0,1,.783-1.887l2.744-1.147a1.427,1.427,0,0,1,1.568.291l6.575,6.343L39.868,27.1l11.017-4.573,9.988-4.151,2.816-1.161a11.831,11.831,0,0,1,5.5-.871,12.337,12.337,0,0,1,5.85,2.018c.391.259.834.6.842.609A4.5,4.5,0,0,1,77.508,23.315Z" fill="none" stroke="#7c7c7c" stroke-linecap="round" stroke-linejoin="round"></path><path d="M71.716,27.9,53.789,35.335l2.5-6.024,4.949-2.062A12.079,12.079,0,0,1,71.716,27.9Z" fill="none" stroke="#7c7c7c" stroke-linecap="round" stroke-linejoin="round"></path><path d="M39.873,27.1,28.692,20.216a1.451,1.451,0,0,1,.2-2.577l4.509-1.871a1.45,1.45,0,0,1,1.111,0L50.881,22.53Z" fill="none" stroke="#7c7c7c" stroke-linecap="round" stroke-linejoin="round"></path><path d="M43.018,39.806l-2.758,11.7a1.445,1.445,0,0,0,1.959,1.669L46.734,51.3a1.485,1.485,0,0,0,.784-.784l6.271-15.184,2.5-6.024L44.324,34.275l-1.306,5.516" fill="none" stroke="#7c7c7c" stroke-linecap="round" stroke-linejoin="round"></path><path d="M43.018 39.806L43.018 39.791" fill="none" stroke="#7c7c7c" stroke-linecap="round" stroke-linejoin="round"></path><path d="M92.9,42.835a3.359,3.359,0,0,0-2.635-.056,5.783,5.783,0,0,0-11.427,0,3.362,3.362,0,0,0-2.628.052,3.476,3.476,0,0,0,1.374,6.674H91.516a3.475,3.475,0,0,0,1.381-6.67Z" fill="none" stroke="#7c7c7c" stroke-linecap="round" stroke-linejoin="round"></path><path d="M84.232,59.956a1.461,1.461,0,0,0-1.19.637,2.592,2.592,0,0,1-4.246,0,1.461,1.461,0,0,0-1.19-.637H47.823A1.742,1.742,0,0,0,46.081,61.7V82.6a1.742,1.742,0,0,0,1.742,1.741H77.606a1.459,1.459,0,0,0,1.19-.637,2.593,2.593,0,0,1,4.246,0,1.459,1.459,0,0,0,1.19.637h5.4A1.742,1.742,0,0,0,91.371,82.6V61.7a1.742,1.742,0,0,0-1.742-1.742Z" fill="none" stroke="#7c7c7c" stroke-linecap="round" stroke-linejoin="round"></path><path d="M80.919,67.8a.871.871,0,1,0,.871.871.871.871,0,0,0-.871-.871Z" fill="#7c7c7c"></path><path d="M80.919,71.279a.871.871,0,1,0,.871.871.871.871,0,0,0-.871-.871Z" fill="#7c7c7c"></path><path d="M80.919,74.763a.871.871,0,1,0,.871.871.871.871,0,0,0-.871-.871Z" fill="#7c7c7c"></path><path d="M80.919,78.247a.871.871,0,1,0,.871.871.871.871,0,0,0-.871-.871Z" fill="#7c7c7c"></path><path d="M50.435 79.118L58.274 79.118" fill="none" stroke="#7c7c7c" stroke-linecap="round" stroke-linejoin="round"></path><path d="M68.726 79.118L74.823 79.118" fill="none" stroke="#7c7c7c" stroke-linecap="round" stroke-linejoin="round"></path><path d="M50.435 70.408L58.274 70.408" fill="none" stroke="#7c7c7c" stroke-linecap="round" stroke-linejoin="round"></path><path d="M50.435 73.892L66.984 73.892" fill="none" stroke="#7c7c7c" stroke-linecap="round" stroke-linejoin="round"></path><path d="M89.629,59.956h-5.4a1.461,1.461,0,0,0-1.19.637,2.592,2.592,0,0,1-4.246,0,1.461,1.461,0,0,0-1.19-.637H47.823A1.742,1.742,0,0,0,46.081,61.7v3.484h45.29V61.7A1.742,1.742,0,0,0,89.629,59.956Z" fill="none" stroke="#7c7c7c" stroke-linecap="round" stroke-linejoin="round"></path><path d="M30.4,75.98H16.613V58.27a1.452,1.452,0,0,1,1.452-1.451H28.952A1.451,1.451,0,0,1,30.4,58.27Z" fill="none" stroke="#7c7c7c" stroke-linecap="round" stroke-linejoin="round"></path><path d="M37.661,65.528H30.4V75.98h8.71v-9A1.452,1.452,0,0,0,37.661,65.528Z" fill="none" stroke="#7c7c7c" stroke-linecap="round" stroke-linejoin="round"></path><path d="M16.613,75.98H7.9V63.737a1.452,1.452,0,0,1,2.2-1.244L16.613,66.4Z" fill="none" stroke="#7c7c7c" stroke-linecap="round" stroke-linejoin="round"></path><path d="M11.984,68.27v.178h-.178V68.27h.178m.274-1h-.726a.726.726,0,0,0-.726.726v.726a.726.726,0,0,0,.726.726h.726a.726.726,0,0,0,.726-.726V68a.726.726,0,0,0-.726-.726Z" fill="#7c7c7c"></path><path d="M11.984,71.9v.178h-.178V71.9h.178m.274-1h-.726a.726.726,0,0,0-.726.726v.726a.726.726,0,0,0,.726.726h.726a.726.726,0,0,0,.726-.726v-.726a.726.726,0,0,0-.726-.726Z" fill="#7c7c7c"></path><path d="M35.21,68.27v.178h-.178V68.27h.178m.274-1h-.726a.726.726,0,0,0-.726.726v.726a.726.726,0,0,0,.726.726h.726a.726.726,0,0,0,.726-.726V68a.726.726,0,0,0-.726-.726Z" fill="#7c7c7c"></path><path d="M19.968,61.012v.178H19.79v-.178h.178m.274-1h-.726a.726.726,0,0,0-.726.726v.726a.726.726,0,0,0,.726.726h.726a.726.726,0,0,0,.726-.726v-.726a.726.726,0,0,0-.726-.726Z" fill="#7c7c7c"></path><path d="M23.6,61.012v.178h-.178v-.178H23.6m.274-1h-.726a.726.726,0,0,0-.726.726v.726a.726.726,0,0,0,.726.726h.726a.726.726,0,0,0,.726-.726v-.726a.726.726,0,0,0-.726-.726Z" fill="#7c7c7c"></path><path d="M27.226,61.012v.178h-.178v-.178h.178m.274-1h-.726a.726.726,0,0,0-.726.726v.726a.726.726,0,0,0,.726.726H27.5a.726.726,0,0,0,.726-.726v-.726a.726.726,0,0,0-.726-.726Z" fill="#7c7c7c"></path><path d="M19.968,64.641v.178H19.79v-.178h.178m.274-1h-.726a.726.726,0,0,0-.726.726v.726a.726.726,0,0,0,.726.726h.726a.726.726,0,0,0,.726-.726v-.726a.726.726,0,0,0-.726-.726Z" fill="#7c7c7c"></path><path d="M23.6,64.641v.178h-.178v-.178H23.6m.274-1h-.726a.726.726,0,0,0-.726.726v.726a.726.726,0,0,0,.726.726h.726a.726.726,0,0,0,.726-.726v-.726a.726.726,0,0,0-.726-.726Z" fill="#7c7c7c"></path><path d="M27.226,64.641v.178h-.178v-.178h.178m.274-1h-.726a.726.726,0,0,0-.726.726v.726a.726.726,0,0,0,.726.726H27.5a.726.726,0,0,0,.726-.726v-.726a.726.726,0,0,0-.726-.726Z" fill="#7c7c7c"></path><path d="M19.968,68.27v.178H19.79V68.27h.178m.274-1h-.726A.726.726,0,0,0,18.79,68v.726a.726.726,0,0,0,.726.726h.726a.726.726,0,0,0,.726-.726V68a.726.726,0,0,0-.726-.726Z" fill="#7c7c7c"></path><path d="M23.6,68.27v.178h-.178V68.27H23.6m.274-1h-.726a.726.726,0,0,0-.726.726v.726a.726.726,0,0,0,.726.726h.726a.726.726,0,0,0,.726-.726V68a.726.726,0,0,0-.726-.726Z" fill="#7c7c7c"></path><path d="M27.226,68.27v.178h-.178V68.27h.178m.274-1h-.726a.726.726,0,0,0-.726.726v.726a.726.726,0,0,0,.726.726H27.5a.726.726,0,0,0,.726-.726V68a.726.726,0,0,0-.726-.726Z" fill="#7c7c7c"></path><path d="M19.968,71.9v.178H19.79V71.9h.178m.274-1h-.726a.726.726,0,0,0-.726.726v.726a.726.726,0,0,0,.726.726h.726a.726.726,0,0,0,.726-.726v-.726a.726.726,0,0,0-.726-.726Z" fill="#7c7c7c"></path><path d="M23.6,71.9v.178h-.178V71.9H23.6m.274-1h-.726a.726.726,0,0,0-.726.726v.726a.726.726,0,0,0,.726.726h.726a.726.726,0,0,0,.726-.726v-.726a.726.726,0,0,0-.726-.726Z" fill="#7c7c7c"></path><path d="M27.226,71.9v.178h-.178V71.9h.178m.274-1h-.726a.726.726,0,0,0-.726.726v.726a.726.726,0,0,0,.726.726H27.5a.726.726,0,0,0,.726-.726v-.726A.726.726,0,0,0,27.5,70.9Z" fill="#7c7c7c"></path><path d="M35.21,71.9v.178h-.178V71.9h.178m.274-1h-.726a.726.726,0,0,0-.726.726v.726a.726.726,0,0,0,.726.726h.726a.726.726,0,0,0,.726-.726v-.726a.726.726,0,0,0-.726-.726Z" fill="#7c7c7c"></path><path d="M60.879,18.38a5.631,5.631,0,0,0,7.343,3.081l7.1-2.9" fill="none" stroke="#7c7c7c" stroke-linecap="round" stroke-linejoin="round"></path><path d="M27.195 41.374L44.324 34.275" fill="none" stroke="#7c7c7c" stroke-linecap="round" stroke-linejoin="round"></path></g></svg>