<?xml version="1.0" encoding="UTF-8" standalone="no"?>
<svg
   xmlns:dc="http://purl.org/dc/elements/1.1/"
   xmlns:cc="http://creativecommons.org/ns#"
   xmlns:rdf="http://www.w3.org/1999/02/22-rdf-syntax-ns#"
   xmlns:svg="http://www.w3.org/2000/svg"
   xmlns="http://www.w3.org/2000/svg"
   xmlns:sodipodi="http://sodipodi.sourceforge.net/DTD/sodipodi-0.dtd"
   xmlns:inkscape="http://www.inkscape.org/namespaces/inkscape"
   inkscape:version="1.0 (4035a4f, 2020-05-01)"
   sodipodi:docname="takeoff-ticket.svg"
   id="svg1050"
   height="400"
   width="400"
   viewBox="0 0 400 400"
   version="1.1">
  <metadata
     id="metadata1056">
    <rdf:RDF>
      <cc:Work
         rdf:about="">
        <dc:format>image/svg+xml</dc:format>
        <dc:type
           rdf:resource="http://purl.org/dc/dcmitype/StillImage" />
      </cc:Work>
    </rdf:RDF>
  </metadata>
  <defs
     id="defs1054" />
  <sodipodi:namedview
     inkscape:current-layer="svg1050"
     inkscape:window-maximized="0"
     inkscape:window-y="23"
     inkscape:window-x="0"
     inkscape:cy="200"
     inkscape:cx="200"
     inkscape:zoom="1.4075"
     showgrid="false"
     id="namedview1052"
     inkscape:window-height="880"
     inkscape:window-width="1497"
     inkscape:pageshadow="2"
     inkscape:pageopacity="0"
     guidetolerance="10"
     gridtolerance="10"
     objecttolerance="10"
     borderopacity="1"
     bordercolor="#666666"
     pagecolor="#ffffff" />
  <g
     id="g1048"
     transform="matrix(4,0,0,4,0,0)">
    <path
       id="path972"
       stroke-linejoin="round"
       stroke-linecap="round"
       stroke="#7c7c7c"
       fill="none"
       d="M5 75.98L7.903 75.98 16.613 75.98 30.403 75.98 39.113 75.98 42.452 75.98" />
    <path
       id="path974"
       stroke-linejoin="round"
       stroke-linecap="round"
       stroke="#7c7c7c"
       fill="none"
       d="M77.508,23.315a4.6,4.6,0,0,1-2.831,3.354L71.716,27.9,53.789,35.335l2.5-6.024L44.324,34.275l-1.306,5.516c-1.176,1.176-11.042,3.018-15.823,1.582a29.117,29.117,0,0,1-6.968-2.09,1.451,1.451,0,0,1-.769-.784l-.479-1.161a1.442,1.442,0,0,1,.784-1.887l.377-.16-2.975-7.2a1.441,1.441,0,0,1,.783-1.887l2.744-1.147a1.427,1.427,0,0,1,1.568.291l6.575,6.343L39.868,27.1l11.017-4.573,9.988-4.151,2.816-1.161a11.831,11.831,0,0,1,5.5-.871,12.337,12.337,0,0,1,5.85,2.018c.391.259.834.6.842.609A4.5,4.5,0,0,1,77.508,23.315Z" />
    <path
       id="path976"
       stroke-linejoin="round"
       stroke-linecap="round"
       stroke="#7c7c7c"
       fill="none"
       d="M71.716,27.9,53.789,35.335l2.5-6.024,4.949-2.062A12.079,12.079,0,0,1,71.716,27.9Z" />
    <path
       id="path978"
       stroke-linejoin="round"
       stroke-linecap="round"
       stroke="#7c7c7c"
       fill="none"
       d="M39.873,27.1,28.692,20.216a1.451,1.451,0,0,1,.2-2.577l4.509-1.871a1.45,1.45,0,0,1,1.111,0L50.881,22.53Z" />
    <path
       id="path980"
       stroke-linejoin="round"
       stroke-linecap="round"
       stroke="#7c7c7c"
       fill="none"
       d="M43.018,39.806l-2.758,11.7a1.445,1.445,0,0,0,1.959,1.669L46.734,51.3a1.485,1.485,0,0,0,.784-.784l6.271-15.184,2.5-6.024L44.324,34.275l-1.306,5.516" />
    <path
       id="path982"
       stroke-linejoin="round"
       stroke-linecap="round"
       stroke="#7c7c7c"
       fill="none"
       d="M43.018 39.806L43.018 39.791" />
    <path
       id="path984"
       stroke-linejoin="round"
       stroke-linecap="round"
       stroke="#7c7c7c"
       fill="none"
       d="M92.9,42.835a3.359,3.359,0,0,0-2.635-.056,5.783,5.783,0,0,0-11.427,0,3.362,3.362,0,0,0-2.628.052,3.476,3.476,0,0,0,1.374,6.674H91.516a3.475,3.475,0,0,0,1.381-6.67Z" />
    <path
       id="path986"
       stroke-linejoin="round"
       stroke-linecap="round"
       stroke="#7c7c7c"
       fill="none"
       d="M84.232,59.956a1.461,1.461,0,0,0-1.19.637,2.592,2.592,0,0,1-4.246,0,1.461,1.461,0,0,0-1.19-.637H47.823A1.742,1.742,0,0,0,46.081,61.7V82.6a1.742,1.742,0,0,0,1.742,1.741H77.606a1.459,1.459,0,0,0,1.19-.637,2.593,2.593,0,0,1,4.246,0,1.459,1.459,0,0,0,1.19.637h5.4A1.742,1.742,0,0,0,91.371,82.6V61.7a1.742,1.742,0,0,0-1.742-1.742Z" />
    <path
       id="path988"
       fill="#7c7c7c"
       d="M80.919,67.8a.871.871,0,1,0,.871.871.871.871,0,0,0-.871-.871Z" />
    <path
       id="path990"
       fill="#7c7c7c"
       d="M80.919,71.279a.871.871,0,1,0,.871.871.871.871,0,0,0-.871-.871Z" />
    <path
       id="path992"
       fill="#7c7c7c"
       d="M80.919,74.763a.871.871,0,1,0,.871.871.871.871,0,0,0-.871-.871Z" />
    <path
       id="path994"
       fill="#7c7c7c"
       d="M80.919,78.247a.871.871,0,1,0,.871.871.871.871,0,0,0-.871-.871Z" />
    <path
       id="path996"
       stroke-linejoin="round"
       stroke-linecap="round"
       stroke="#7c7c7c"
       fill="none"
       d="M50.435 79.118L58.274 79.118" />
    <path
       id="path998"
       stroke-linejoin="round"
       stroke-linecap="round"
       stroke="#7c7c7c"
       fill="none"
       d="M68.726 79.118L74.823 79.118" />
    <path
       id="path1000"
       stroke-linejoin="round"
       stroke-linecap="round"
       stroke="#7c7c7c"
       fill="none"
       d="M50.435 70.408L58.274 70.408" />
    <path
       id="path1002"
       stroke-linejoin="round"
       stroke-linecap="round"
       stroke="#7c7c7c"
       fill="none"
       d="M50.435 73.892L66.984 73.892" />
    <path
       id="path1004"
       stroke-linejoin="round"
       stroke-linecap="round"
       stroke="#7c7c7c"
       fill="none"
       d="M89.629,59.956h-5.4a1.461,1.461,0,0,0-1.19.637,2.592,2.592,0,0,1-4.246,0,1.461,1.461,0,0,0-1.19-.637H47.823A1.742,1.742,0,0,0,46.081,61.7v3.484h45.29V61.7A1.742,1.742,0,0,0,89.629,59.956Z" />
    <path
       id="path1006"
       stroke-linejoin="round"
       stroke-linecap="round"
       stroke="#7c7c7c"
       fill="none"
       d="M30.4,75.98H16.613V58.27a1.452,1.452,0,0,1,1.452-1.451H28.952A1.451,1.451,0,0,1,30.4,58.27Z" />
    <path
       id="path1008"
       stroke-linejoin="round"
       stroke-linecap="round"
       stroke="#7c7c7c"
       fill="none"
       d="M37.661,65.528H30.4V75.98h8.71v-9A1.452,1.452,0,0,0,37.661,65.528Z" />
    <path
       id="path1010"
       stroke-linejoin="round"
       stroke-linecap="round"
       stroke="#7c7c7c"
       fill="none"
       d="M16.613,75.98H7.9V63.737a1.452,1.452,0,0,1,2.2-1.244L16.613,66.4Z" />
    <path
       id="path1012"
       fill="#7c7c7c"
       d="M11.984,68.27v.178h-.178V68.27h.178m.274-1h-.726a.726.726,0,0,0-.726.726v.726a.726.726,0,0,0,.726.726h.726a.726.726,0,0,0,.726-.726V68a.726.726,0,0,0-.726-.726Z" />
    <path
       id="path1014"
       fill="#7c7c7c"
       d="M11.984,71.9v.178h-.178V71.9h.178m.274-1h-.726a.726.726,0,0,0-.726.726v.726a.726.726,0,0,0,.726.726h.726a.726.726,0,0,0,.726-.726v-.726a.726.726,0,0,0-.726-.726Z" />
    <path
       id="path1016"
       fill="#7c7c7c"
       d="M35.21,68.27v.178h-.178V68.27h.178m.274-1h-.726a.726.726,0,0,0-.726.726v.726a.726.726,0,0,0,.726.726h.726a.726.726,0,0,0,.726-.726V68a.726.726,0,0,0-.726-.726Z" />
    <path
       id="path1018"
       fill="#7c7c7c"
       d="M19.968,61.012v.178H19.79v-.178h.178m.274-1h-.726a.726.726,0,0,0-.726.726v.726a.726.726,0,0,0,.726.726h.726a.726.726,0,0,0,.726-.726v-.726a.726.726,0,0,0-.726-.726Z" />
    <path
       id="path1020"
       fill="#7c7c7c"
       d="M23.6,61.012v.178h-.178v-.178H23.6m.274-1h-.726a.726.726,0,0,0-.726.726v.726a.726.726,0,0,0,.726.726h.726a.726.726,0,0,0,.726-.726v-.726a.726.726,0,0,0-.726-.726Z" />
    <path
       id="path1022"
       fill="#7c7c7c"
       d="M27.226,61.012v.178h-.178v-.178h.178m.274-1h-.726a.726.726,0,0,0-.726.726v.726a.726.726,0,0,0,.726.726H27.5a.726.726,0,0,0,.726-.726v-.726a.726.726,0,0,0-.726-.726Z" />
    <path
       id="path1024"
       fill="#7c7c7c"
       d="M19.968,64.641v.178H19.79v-.178h.178m.274-1h-.726a.726.726,0,0,0-.726.726v.726a.726.726,0,0,0,.726.726h.726a.726.726,0,0,0,.726-.726v-.726a.726.726,0,0,0-.726-.726Z" />
    <path
       id="path1026"
       fill="#7c7c7c"
       d="M23.6,64.641v.178h-.178v-.178H23.6m.274-1h-.726a.726.726,0,0,0-.726.726v.726a.726.726,0,0,0,.726.726h.726a.726.726,0,0,0,.726-.726v-.726a.726.726,0,0,0-.726-.726Z" />
    <path
       id="path1028"
       fill="#7c7c7c"
       d="M27.226,64.641v.178h-.178v-.178h.178m.274-1h-.726a.726.726,0,0,0-.726.726v.726a.726.726,0,0,0,.726.726H27.5a.726.726,0,0,0,.726-.726v-.726a.726.726,0,0,0-.726-.726Z" />
    <path
       id="path1030"
       fill="#7c7c7c"
       d="M19.968,68.27v.178H19.79V68.27h.178m.274-1h-.726A.726.726,0,0,0,18.79,68v.726a.726.726,0,0,0,.726.726h.726a.726.726,0,0,0,.726-.726V68a.726.726,0,0,0-.726-.726Z" />
    <path
       id="path1032"
       fill="#7c7c7c"
       d="M23.6,68.27v.178h-.178V68.27H23.6m.274-1h-.726a.726.726,0,0,0-.726.726v.726a.726.726,0,0,0,.726.726h.726a.726.726,0,0,0,.726-.726V68a.726.726,0,0,0-.726-.726Z" />
    <path
       id="path1034"
       fill="#7c7c7c"
       d="M27.226,68.27v.178h-.178V68.27h.178m.274-1h-.726a.726.726,0,0,0-.726.726v.726a.726.726,0,0,0,.726.726H27.5a.726.726,0,0,0,.726-.726V68a.726.726,0,0,0-.726-.726Z" />
    <path
       id="path1036"
       fill="#7c7c7c"
       d="M19.968,71.9v.178H19.79V71.9h.178m.274-1h-.726a.726.726,0,0,0-.726.726v.726a.726.726,0,0,0,.726.726h.726a.726.726,0,0,0,.726-.726v-.726a.726.726,0,0,0-.726-.726Z" />
    <path
       id="path1038"
       fill="#7c7c7c"
       d="M23.6,71.9v.178h-.178V71.9H23.6m.274-1h-.726a.726.726,0,0,0-.726.726v.726a.726.726,0,0,0,.726.726h.726a.726.726,0,0,0,.726-.726v-.726a.726.726,0,0,0-.726-.726Z" />
    <path
       id="path1040"
       fill="#7c7c7c"
       d="M27.226,71.9v.178h-.178V71.9h.178m.274-1h-.726a.726.726,0,0,0-.726.726v.726a.726.726,0,0,0,.726.726H27.5a.726.726,0,0,0,.726-.726v-.726A.726.726,0,0,0,27.5,70.9Z" />
    <path
       id="path1042"
       fill="#7c7c7c"
       d="M35.21,71.9v.178h-.178V71.9h.178m.274-1h-.726a.726.726,0,0,0-.726.726v.726a.726.726,0,0,0,.726.726h.726a.726.726,0,0,0,.726-.726v-.726a.726.726,0,0,0-.726-.726Z" />
    <path
       id="path1044"
       stroke-linejoin="round"
       stroke-linecap="round"
       stroke="#7c7c7c"
       fill="none"
       d="M60.879,18.38a5.631,5.631,0,0,0,7.343,3.081l7.1-2.9" />
    <path
       id="path1046"
       stroke-linejoin="round"
       stroke-linecap="round"
       stroke="#7c7c7c"
       fill="none"
       d="M27.195 41.374L44.324 34.275" />
  </g>
  <path
     id="path1058"
     d="m 161.57945,212.48804 c -1.49824,-1.49823 -2.07679,-2.7643 -2.07679,-4.54472 0,-1.35737 2.24188,-11.98201 4.98195,-23.61031 2.74006,-11.6283 4.89815,-21.21403 4.79574,-21.30164 -0.10242,-0.0876 -3.70309,0.72981 -8.00149,1.81647 -10.47722,2.64868 -23.41337,4.24693 -34.34582,4.24338 -10.60099,-0.004 -23.91712,-2.44469 -36.949922,-6.77404 -11.41959,-3.79346 -13.463129,-5.49229 -15.680128,-13.03512 -0.832064,-2.83091 0.355531,-6.39985 2.668747,-8.02009 1.433049,-1.00375 1.361424,-1.24974 -4.59034,-15.76519 -6.638699,-16.19078 -6.829933,-17.4616 -3.099943,-20.60018 3.113607,-2.61992 15.080845,-7.139996 17.377541,-6.563562 1.088864,0.273287 7.618884,5.957012 15.412635,13.415162 7.43782,7.11753 13.891,12.83598 14.3404,12.70766 2.48228,-0.70878 38.82776,-16.09779 38.82776,-16.44004 0,-0.22475 -9.61892,-6.31652 -21.37539,-13.537273 -14.87904,-9.138622 -21.68073,-13.711711 -22.3801,-15.047172 -1.46877,-2.80464 -1.23769,-5.909489 0.59385,-7.979153 1.78065,-2.012154 20.93002,-10.350979 23.7701,-10.350979 0.9549,0 6.42799,1.952736 12.16244,4.339413 29.63648,12.33471 54.94476,22.658811 55.54532,22.658811 0.37188,0 12.11291,-4.749204 26.09115,-10.553787 13.97825,-5.804583 27.04729,-11.090237 29.04231,-11.745897 8.00396,-2.63049 19.57177,-2.652766 28.5607,-0.055 5.99459,1.732415 14.69056,6.492903 18.34054,10.040281 8.14263,7.913729 8.34857,19.867127 0.47789,27.737806 -3.28302,3.28302 -5.03448,4.07394 -53.36121,24.09688 -19.41535,8.04424 -35.66807,14.99186 -36.11716,15.43913 -0.44908,0.44728 -5.68106,12.64272 -11.62662,27.10098 -13.58449,33.03441 -14.41309,34.85264 -16.35732,35.89315 -5.02866,2.69126 -20.41315,8.51182 -22.49784,8.51182 -1.76304,0 -3.03588,-0.58366 -4.529,-2.07679 z m 10.45983,-2.81975 c 2.67857,-1.13004 7.31734,-3.06543 10.30836,-4.30087 l 5.43823,-2.24625 2.48484,-5.82346 c 1.36666,-3.20291 7.33031,-17.65295 13.25257,-32.11121 5.92225,-14.45826 12.38629,-30.21925 14.36453,-35.02442 1.97824,-4.80518 3.46947,-8.86401 3.31385,-9.01963 -0.3267,-0.3267 -41.1691,16.53097 -42.00678,17.33827 -0.30604,0.29495 -2.15932,7.22369 -4.11838,15.39722 -9.77449,40.78064 -12.71401,53.94023 -12.32361,55.17026 0.36381,1.14624 2.36028,2.47275 3.9578,2.62968 0.25215,0.0248 2.65002,-0.87955 5.32859,-2.00959 z m -25.68049,-45.2864 c 9.56596,-1.25955 20.05772,-3.76993 22.53233,-5.39135 1.30022,-0.85194 2.05728,-2.78444 3.65151,-9.32092 1.10616,-4.53538 1.90177,-8.52446 1.76803,-8.86462 -0.27326,-0.69501 -58.85773,23.35099 -58.85773,24.15816 0,1.37794 18.69672,1.02629 30.90586,-0.58127 z m -4.8044,-14.17421 c 17.49144,-7.26145 32.76177,-13.64335 33.93406,-14.18201 2.73268,-1.25565 31.73814,-13.26834 55.0189,-22.78622 11.07879,-4.52935 20.28084,-7.83636 23.77608,-8.54459 8.03679,-1.62846 16.16766,-1.00733 24.31733,1.85765 3.46585,1.2184 6.95745,2.38578 7.75911,2.59418 0.85067,0.22114 4.25261,-0.82068 8.17051,-2.50217 4.91339,-2.10872 7.50544,-3.71357 9.66918,-5.98657 6.01901,-6.322966 6.01901,-15.227686 0,-21.578001 l -2.95622,-3.118938 -14.91335,6.099667 c -8.20235,3.354817 -16.51496,6.337441 -18.47247,6.628054 -4.84786,0.719713 -10.59858,-0.271674 -14.78131,-2.548201 -3.26418,-1.776591 -9.73696,-8.082257 -9.73696,-9.485578 0,-0.348501 -0.39964,-0.63223 -0.8881,-0.630508 -0.48845,0.0017 -9.68028,3.684494 -20.42628,8.183937 -10.74601,4.499445 -29.28952,12.221283 -41.20782,17.159638 -11.91829,4.93836 -31.56604,13.08881 -43.66165,18.11211 l -21.99204,9.13328 -3.58523,-3.38308 c -1.97188,-1.8607 -8.2451,-7.93903 -13.940501,-13.50742 -7.819156,-7.64478 -10.796787,-10.12433 -12.158055,-10.12433 -1.897639,0 -11.155065,3.58191 -13.891675,5.375 -0.905107,0.59305 -1.605661,1.77274 -1.605661,2.70383 0,0.90847 2.717584,8.23826 6.039076,16.28842 3.321492,8.05016 6.039077,14.96446 6.039077,15.36513 0,0.40065 -0.954516,1.22206 -2.121146,1.82535 -2.793477,1.44456 -3.360663,3.93932 -1.747647,7.68697 0.70438,1.63656 1.623228,3.35299 2.041883,3.81431 1.984468,2.18669 22.143639,8.64446 27.217879,8.71894 1.42919,0.021 14.34463,-4.9663 34.10303,-13.16885 z m 119.54685,-29.76359 c 11.13677,-4.6047 20.5275,-8.62563 20.86829,-8.93539 1.24125,-1.12824 -9.04551,-3.67111 -16.34608,-4.04072 -9.40371,-0.47609 -14.63833,0.7155 -28.32303,6.44734 l -10.65695,4.46366 -3.69511,8.83893 c -2.03231,4.86141 -3.71093,9.22269 -3.73026,9.69174 -0.0205,0.49579 4.50075,-1.01981 10.79966,-3.62028 5.95915,-2.46019 19.94672,-8.24057 31.08348,-12.84528 z M 179.04085,98.418005 c 10.15986,-4.19085 18.71656,-7.847601 19.01489,-8.126115 0.71542,-0.667901 -59.82191,-25.638249 -62.15657,-25.638249 -0.99171,0 -6.1834,1.805312 -11.5371,4.011804 -7.93974,3.272312 -9.8609,4.345578 -10.42244,5.822554 -0.5346,1.406088 -0.40273,2.186561 0.59005,3.492414 1.45227,1.910252 44.23674,28.592027 45.32822,28.268147 0.39077,-0.11596 9.02309,-3.63971 19.18295,-7.830555 z M 283.52219,79.813808 c 7.58295,-3.062781 13.7931,-5.761149 13.80034,-5.996374 0.0296,-0.959256 -9.9436,-4.880645 -15.05457,-5.919379 -6.39584,-1.299866 -10.52682,-1.386708 -16.90384,-0.355352 -5.06333,0.818895 -19.18295,6.135712 -19.18295,7.223443 0,1.210027 2.87458,4.760165 5.43672,6.714402 1.37265,1.046969 4.14786,2.493985 6.16715,3.215591 6.14975,2.197649 10.03132,1.461317 25.73715,-4.882331 z"
     style="fill:#cccccc;stroke:#d7d7d7;stroke-width:0.71048" />
  <path
     id="path1060"
     d="m 187.04268,337.78658 c -4.18872,-2.27278 -4.09419,-1.1338 -4.09419,-49.33187 0,-48.77592 -0.15766,-47.06446 4.54089,-49.29407 2.24888,-1.06716 8.05379,-1.15599 64.29963,-0.9839 l 61.82757,0.18916 3.25749,3.19716 c 2.95194,2.89727 3.57899,3.19715 6.6851,3.19715 3.04066,0 3.79449,-0.33816 6.67731,-2.99546 1.78733,-1.6475 4.01439,-3.18739 4.94903,-3.42197 0.93462,-0.23457 7.37315,-0.32534 14.30783,-0.20169 l 12.60851,0.22481 2.43043,2.65386 2.43042,2.65387 v 44.4834 c 0,49.22494 0.19083,47.14928 -4.56823,49.68751 -1.84713,0.98517 -4.21731,1.12783 -15.47038,0.93119 l -13.28905,-0.23221 -2.69674,-2.622 c -5.25249,-5.10691 -8.87444,-5.14485 -14.4963,-0.15184 l -3.52318,3.12908 -61.96563,-0.0284 c -53.42417,-0.0246 -62.23371,-0.17394 -63.91051,-1.08376 z m 126.96656,-4.08203 c 1.62456,-2.47938 6.19787,-4.75251 9.56162,-4.75251 3.55768,0 7.92363,2.09213 9.55191,4.57719 l 1.19063,1.81713 h 13.37262 c 12.69102,0 13.4416,-0.0762 14.72607,-1.49503 1.28664,-1.42123 1.36318,-3.22754 1.55042,-36.5897 l 0.19696,-35.09467 h -89.18453 -89.18453 v 34.50497 c 0,34.39847 0.14018,36.61147 2.41542,38.13069 0.42995,0.28709 28.66957,0.52688 62.7547,0.53286 l 61.97296,0.0109 z m 49.40106,-81.83954 c 0,-10.64815 0.51253,-10.30195 -15.25159,-10.30195 h -12.40968 l -3.54568,3.14906 c -5.93839,5.27413 -12.62988,4.93257 -18.12668,-0.92526 l -2.08674,-2.2238 h -61.24486 c -59.22272,0 -61.30022,0.0448 -62.92213,1.35695 -1.53828,1.24449 -1.69737,1.98051 -1.91958,8.88099 l -0.24229,7.52404 h 88.87462 88.87461 z"
     style="fill:#cccccc;stroke:#d7d7d7;stroke-width:0.71048" />
  <path
     id="path1062"
     d="m 305.50622,198.89097 c -3.08368,-0.90515 -7.26321,-4.61152 -9.04194,-8.01831 -5.07641,-9.72276 2.5257,-22.04622 13.63941,-22.11028 l 4.0744,-0.0235 1.18481,-3.33342 c 0.65164,-1.83338 2.76358,-5.06085 4.6932,-7.17216 8.0719,-8.83195 21.30259,-10.71046 31.24226,-4.43582 3.81357,2.4074 8.39934,7.90571 9.7404,11.67867 l 1.15971,3.26273 4.07439,0.0235 c 8.22356,0.0474 15.25881,7.07008 15.20412,15.17696 -0.0455,6.75507 -4.82539,13.29811 -10.96188,15.00558 -3.10876,0.865 -62.0448,0.81609 -65.00888,-0.0539 z m 67.68926,-4.81226 c 7.10715,-5.06918 6.63027,-15.98853 -0.89076,-20.39615 -2.9771,-1.7447 -3.77461,-1.89931 -7.83903,-1.51977 l -4.52475,0.42253 -1.11336,-3.82983 c -3.69608,-12.71405 -17.80985,-18.98218 -29.882,-13.27102 -6.08769,2.88 -9.87142,7.4594 -11.66167,14.11396 l -0.80464,2.99096 -4.54658,-0.42456 c -4.05297,-0.37847 -4.8919,-0.22219 -7.72734,1.43949 -3.60593,2.11321 -6.16902,6.4757 -6.14357,10.45659 0.0306,4.77847 3.46647,9.8575 7.79968,11.52961 0.58614,0.22618 15.45293,0.3517 33.0373,0.27892 l 31.97158,-0.13232 z"
     style="fill:#cccccc;stroke:#d7d7d7;stroke-width:0.71048" />
  <path
     id="path1064"
     d="m 321.6341,276.94494 c -2.41157,-2.41158 0.42443,-6.42925 3.4103,-4.83126 2.50775,1.3421 1.42232,5.68383 -1.42095,5.68383 -0.62523,0 -1.52043,-0.38366 -1.98935,-0.85257 z"
     style="fill:#cccccc;stroke:#d7d7d7;stroke-width:0.71048" />
  <path
     id="path1066"
     d="m 321.91557,291.0792 c -2.66414,-1.94806 0.16791,-6.77973 2.95122,-5.03498 1.75022,1.09715 2.00931,3.90541 0.46454,5.03498 -0.69795,0.51035 -1.46649,0.9279 -1.70788,0.9279 -0.24139,0 -1.00994,-0.41755 -1.70788,-0.9279 z"
     style="fill:#cccccc;stroke:#d7d7d7;stroke-width:0.71048" />
  <path
     id="path1068"
     d="m 321.6341,304.65364 c -0.46891,-0.46892 -0.85257,-1.59822 -0.85257,-2.50957 0,-1.94817 2.53486,-3.21131 4.44049,-2.21274 2.36495,1.23925 1.12172,5.57489 -1.59857,5.57489 -0.62523,0 -1.52043,-0.38366 -1.98935,-0.85258 z"
     style="fill:#cccccc;stroke:#d7d7d7;stroke-width:0.71048" />
  <path
     id="path1070"
     d="m 321.91557,318.7879 c -2.66414,-1.94806 0.16791,-6.77973 2.95122,-5.03497 1.54169,0.96643 1.9924,3.56656 0.85564,4.93627 -1.05594,1.27232 -2.1626,1.30101 -3.80686,0.0987 z"
     style="fill:#cccccc;stroke:#d7d7d7;stroke-width:0.71048" />
  <path
     id="path1072"
     d="m 273.96397,317.6541 c -0.55136,-0.35407 -0.79516,-1.14879 -0.54912,-1.78996 0.39025,-1.01699 2.01748,-1.13033 13.78026,-0.95981 12.79964,0.18556 13.33775,0.25069 13.33775,1.61432 0,1.36183 -0.5322,1.42827 -12.78863,1.5966 -7.03375,0.0966 -13.23487,-0.11092 -13.78026,-0.46115 z"
     style="fill:#cccccc;stroke:#d7d7d7;stroke-width:0.71048" />
  <path
     id="path1076"
     d="m 200.32118,296.21487 c -0.26486,-0.42855 -0.18656,-1.07417 0.17399,-1.43473 0.38738,-0.38738 14.58871,-0.58003 34.71607,-0.47095 29.72032,0.16107 34.06052,0.32039 34.06052,1.25031 0,0.93001 -4.35945,1.08921 -34.23451,1.25014 -24.25228,0.13064 -34.37493,-0.0428 -34.71607,-0.59477 z"
     style="fill:#cccccc;stroke:#d7d7d7;stroke-width:0.71048" />
  <path
     id="path1078"
     d="m 200.73631,282.44675 c -1.86383,-2.24578 -0.0628,-2.5178 16.67044,-2.5178 16.73322,0 18.53427,0.27202 16.67044,2.5178 -1.27101,1.53148 -32.06987,1.53148 -33.34088,0 z"
     style="fill:#cccccc;stroke:#d7d7d7;stroke-width:0.71048" />
  <path
     id="path1080"
     d="m 200.73631,317.26025 c -1.86466,-2.24677 -0.0633,-2.5178 16.73467,-2.5178 14.63552,0 16.73006,0.13921 17.11311,1.13743 0.24006,0.62558 -0.01,1.41997 -0.55516,1.76532 -0.5454,0.34534 -8.06616,0.63279 -16.71281,0.63877 -12.90704,0.009 -15.87487,-0.17432 -16.57981,-1.02372 z"
     style="fill:#cccccc;stroke:#d7d7d7;stroke-width:0.71048" />
  <path
     id="path1082"
     d="m 18.604003,304.52708 c -0.697938,-1.8188 1.179924,-2.57326 6.404878,-2.57326 h 5.186501 v -24.7087 c 0,-21.69353 0.141379,-24.91055 1.158574,-26.36279 1.474584,-2.10527 5.228277,-3.69016 7.396782,-3.12308 0.920951,0.24084 7.205786,3.72034 13.966299,7.73223 l 12.291844,7.29434 v -16.34987 -16.34987 l 2.076786,-2.07679 2.076787,-2.07679 24.74382,0.0226 c 26.216096,0.0239 25.704366,-0.0399 28.151196,3.51027 1.04545,1.51685 1.21074,3.77194 1.21074,16.51865 V 260.746 l 15.09769,0.0226 c 20.97371,0.0314 19.71581,-1.45048 19.71581,23.22608 v 17.95914 h 5.95208 c 4.34441,0 6.184,0.27944 6.81072,1.0346 0.47225,0.56902 0.65239,1.36831 0.4003,1.7762 -0.31375,0.50766 -24.40225,0.7416 -76.361705,0.7416 -63.83143,0 -75.963127,-0.15573 -76.279102,-0.97914 z m 46.404878,-20.28441 v -17.71116 l -13.15379,-7.86611 c -7.234584,-4.32636 -13.788758,-7.86611 -14.564831,-7.86611 -0.776072,0 -2.050473,0.63943 -2.832001,1.42096 -1.365235,1.36523 -1.420959,2.36826 -1.420959,25.57726 v 24.15631 h 15.985791 15.98579 z m 54.706929,-17.77254 v -35.48369 l -1.57905,-1.10601 c -2.2512,-1.5768 -46.406562,-1.66585 -48.551588,-0.0979 -1.328731,0.97125 -1.386325,2.30847 -1.575924,36.5897 l -0.19679,35.5816 h 25.951677 25.951675 z m 34.8135,17.40675 c 0,-17.87479 -0.0176,-18.08931 -1.57905,-19.18295 -1.29994,-0.91052 -4.06273,-1.10601 -15.63055,-1.10601 h -14.0515 v 19.18295 19.18295 h 15.63055 15.63055 z"
     style="fill:#cccccc;stroke:#d7d7d7;stroke-width:0.71048" />
  <path
     id="path1084"
     d="m 137.60933,291.39295 c -0.60369,-0.38282 -0.85505,-1.69858 -0.71048,-3.71914 0.2193,-3.06508 0.27723,-3.13115 2.93759,-3.3502 1.49263,-0.12291 3.17114,0.15602 3.73002,0.61985 1.235,1.02496 1.34057,5.03405 0.16356,6.21107 -0.97446,0.97446 -4.72933,1.12072 -6.12069,0.23842 z m 3.42087,-3.64872 c 0,-0.39077 -0.31972,-0.71048 -0.71048,-0.71048 -0.39077,0 -0.71048,0.31971 -0.71048,0.71048 0,0.39076 0.31971,0.71048 0.71048,0.71048 0.39076,0 0.71048,-0.31972 0.71048,-0.71048 z"
     style="fill:#cccccc;stroke:#d7d7d7;stroke-width:0.71048" />
  <path
     id="path1086"
     d=""
     style="fill:#cccccc;stroke:#d7d7d7;stroke-width:0.71048" />
  <path
     id="path1088"
     d="m 138.01066,277.05938 c -1.45897,-0.8841 -1.72476,-5.60106 -0.39077,-6.93505 1.0474,-1.0474 3.74457,-1.10391 5.58845,-0.11709 1.4275,0.76397 1.90053,4.44078 0.7952,6.181 -0.78221,1.23149 -4.50515,1.77267 -5.99288,0.87114 z m 3.01954,-3.52474 c 0,-0.39077 -0.31972,-0.71048 -0.71048,-0.71048 -0.39077,0 -0.71048,0.31971 -0.71048,0.71048 0,0.39076 0.31971,0.71048 0.71048,0.71048 0.39076,0 0.71048,-0.31972 0.71048,-0.71048 z"
     style="fill:#cccccc;stroke:#d7d7d7;stroke-width:0.71048" />
  <path
     id="path1090"
     d="m 105.54737,290.99097 c -0.46383,-0.55888 -0.74276,-2.23738 -0.61986,-3.73002 0.21295,-2.5862 0.35115,-2.72439 2.93735,-2.93734 1.49263,-0.12291 3.17114,0.15602 3.73002,0.61985 1.235,1.02496 1.34057,5.03405 0.16356,6.21107 -1.17702,1.17702 -5.18611,1.07144 -6.21107,-0.16356 z m 3.51124,-3.24674 c 0,-0.39077 -0.31971,-0.71048 -0.71048,-0.71048 -0.39076,0 -0.71047,0.31971 -0.71047,0.71048 0,0.39076 0.31971,0.71048 0.71047,0.71048 0.39077,0 0.71048,-0.31972 0.71048,-0.71048 z"
     style="fill:#cccccc;stroke:#d7d7d7;stroke-width:0.71048" />
  <path
     id="path1092"
     d="m 106.03908,277.05938 c -1.45898,-0.8841 -1.72476,-5.60106 -0.39077,-6.93505 1.0474,-1.0474 3.74457,-1.10391 5.58845,-0.11709 1.4275,0.76397 1.90053,4.44078 0.79519,6.181 -0.7822,1.23149 -4.50514,1.77267 -5.99287,0.87114 z m 3.01953,-3.52474 c 0,-0.39077 -0.31971,-0.71048 -0.71048,-0.71048 -0.39076,0 -0.71047,0.31971 -0.71047,0.71048 0,0.39076 0.31971,0.71048 0.71047,0.71048 0.39077,0 0.71048,-0.31972 0.71048,-0.71048 z"
     style="fill:#cccccc;stroke:#d7d7d7;stroke-width:0.71048" />
  <path
     id="path1094"
     d="m 105.63775,262.26329 c -0.60369,-0.38282 -0.85505,-1.69858 -0.71048,-3.71914 0.2193,-3.06508 0.27723,-3.13115 2.93759,-3.35021 1.49263,-0.1229 3.17114,0.15603 3.73002,0.61986 1.235,1.02496 1.34057,5.03405 0.16356,6.21107 -0.97446,0.97446 -4.72933,1.12072 -6.12069,0.23842 z m 3.42086,-3.64873 c 0,-0.39076 -0.31971,-0.71047 -0.71048,-0.71047 -0.39076,0 -0.71047,0.31971 -0.71047,0.71047 0,0.39077 0.31971,0.71048 0.71047,0.71048 0.39077,0 0.71048,-0.31971 0.71048,-0.71048 z"
     style="fill:#cccccc;stroke:#d7d7d7;stroke-width:0.71048" />
  <path
     id="path1096"
     d="m 106.03908,247.90046 c -1.46023,-0.8505 -1.72724,-5.56932 -0.39077,-6.90579 1.20712,-1.20712 4.52499,-1.05736 5.84623,0.26389 0.61406,0.61406 1.11647,2.02995 1.11647,3.14641 0,3.57096 -3.36735,5.36199 -6.57193,3.49549 z m 3.01953,-3.49549 c 0,-0.39076 -0.31971,-0.71048 -0.71048,-0.71048 -0.39076,0 -0.71047,0.31972 -0.71047,0.71048 0,0.39077 0.31971,0.71048 0.71047,0.71048 0.39077,0 0.71048,-0.31971 0.71048,-0.71048 z"
     style="fill:#cccccc;stroke:#d7d7d7;stroke-width:0.71048" />
  <path
     id="path1098"
     d="m 91.030502,247.58975 c -0.63516,-0.63516 -1.154836,-2.06831 -1.154836,-3.18478 0,-4.45774 5.615087,-5.86551 7.793111,-1.95382 0.976859,1.75442 0.976859,2.15322 0,3.90764 -1.31269,2.35757 -4.854834,3.0144 -6.638275,1.23096 z m 3.818521,-3.18478 c 0,-0.39076 -0.319716,-0.71048 -0.710479,-0.71048 -0.390764,0 -0.71048,0.31972 -0.71048,0.71048 0,0.39077 0.319716,0.71048 0.71048,0.71048 0.390763,0 0.710479,-0.31971 0.710479,-0.71048 z"
     style="fill:#cccccc;stroke:#d7d7d7;stroke-width:0.71048" />
  <path
     id="path1100"
     d="m 76.8158,247.75141 c -0.914572,-0.66875 -1.191299,-1.67336 -1.023893,-3.71707 0.189111,-2.3087 0.567577,-2.91884 2.154601,-3.47353 1.302415,-0.45521 2.509034,-0.40687 3.730018,0.14945 1.493409,0.68044 1.804824,1.31101 1.804824,3.65448 0,2.07293 -0.368403,3.02932 -1.374252,3.56763 -1.853068,0.99174 -3.777556,0.92592 -5.291298,-0.18096 z m 3.113152,-3.34644 c 0,-0.39076 -0.319716,-0.71048 -0.71048,-0.71048 -0.390763,0 -0.710479,0.31972 -0.710479,0.71048 0,0.39077 0.319716,0.71048 0.710479,0.71048 0.390764,0 0.71048,-0.31971 0.71048,-0.71048 z"
     style="fill:#cccccc;stroke:#d7d7d7;stroke-width:0.71048" />
  <path
     id="path1102"
     d="m 90.728242,262.02487 c -1.177017,-1.17702 -1.071442,-5.18611 0.16356,-6.21107 0.558875,-0.46383 2.21267,-0.74276 3.675098,-0.61986 2.136141,0.17953 2.779123,0.58648 3.270074,2.06966 0.366024,1.10578 0.323867,2.60171 -0.105115,3.73002 -0.602582,1.58491 -1.147404,1.88382 -3.433635,1.88382 -1.494574,0 -3.101066,-0.38366 -3.569982,-0.85257 z m 4.120781,-3.41031 c 0,-0.39076 -0.319716,-0.71047 -0.710479,-0.71047 -0.390764,0 -0.71048,0.31971 -0.71048,0.71047 0,0.39077 0.319716,0.71048 0.71048,0.71048 0.390763,0 0.710479,-0.31971 0.710479,-0.71048 z"
     style="fill:#cccccc;stroke:#d7d7d7;stroke-width:0.71048" />
  <path
     id="path1104"
     d="m 91.454711,276.69151 c -1.875174,-1.31343 -2.119749,-4.64611 -0.462577,-6.30328 1.657172,-1.65718 4.989857,-1.4126 6.303281,0.46257 1.488579,2.12525 1.392054,3.81875 -0.314953,5.52575 -1.707008,1.70701 -3.400506,1.80354 -5.525751,0.31496 z m 3.394312,-3.15687 c 0,-0.39077 -0.319716,-0.71048 -0.710479,-0.71048 -0.390764,0 -0.71048,0.31971 -0.71048,0.71048 0,0.39076 0.319716,0.71048 0.71048,0.71048 0.390763,0 0.710479,-0.31972 0.710479,-0.71048 z"
     style="fill:#cccccc;stroke:#d7d7d7;stroke-width:0.71048" />
  <path
     id="path1106"
     d="m 90.728242,291.15453 c -1.101304,-1.1013 -1.101304,-5.00882 0,-6.11013 0.468916,-0.46891 2.056246,-0.85257 3.5274,-0.85257 1.987356,0 2.87938,0.38221 3.470715,1.48713 0.879391,1.64316 0.318281,4.95154 -0.979845,5.77729 -1.303836,0.82938 -5.076296,0.64025 -6.01827,-0.30172 z m 4.120781,-3.4103 c 0,-0.39077 -0.319716,-0.71048 -0.710479,-0.71048 -0.390764,0 -0.71048,0.31971 -0.71048,0.71048 0,0.39076 0.319716,0.71048 0.71048,0.71048 0.390763,0 0.710479,-0.31972 0.710479,-0.71048 z"
     style="fill:#cccccc;stroke:#d7d7d7;stroke-width:0.71048" />
  <path
     id="path1108"
     d=""
     style="fill:#cccccc;stroke:#d7d7d7;stroke-width:0.71048" />
  <path
     id="path1110"
     d="m 76.417704,290.99097 c -0.463825,-0.55888 -0.742759,-2.23738 -0.619854,-3.73002 0.219057,-2.66036 0.285128,-2.71829 3.350207,-2.93759 2.020557,-0.14456 3.336322,0.10679 3.719139,0.71048 0.882304,1.39137 0.73604,5.14623 -0.238422,6.12069 -1.177016,1.17702 -5.186108,1.07144 -6.21107,-0.16356 z m 3.511248,-3.24674 c 0,-0.39077 -0.319716,-0.71048 -0.71048,-0.71048 -0.390763,0 -0.710479,0.31971 -0.710479,0.71048 0,0.39076 0.319716,0.71048 0.710479,0.71048 0.390764,0 0.71048,-0.31972 0.71048,-0.71048 z"
     style="fill:#cccccc;stroke:#d7d7d7;stroke-width:0.71048" />
  <path
     id="path1112"
     d="m 76.909414,277.03013 c -1.460222,-0.85051 -1.727236,-5.56932 -0.390764,-6.9058 1.101304,-1.1013 5.008821,-1.1013 6.110124,0 1.41708,1.41708 1.065847,6.08809 -0.521676,6.93771 -1.717124,0.91897 -3.584795,0.90751 -5.197684,-0.0319 z m 3.019538,-3.49549 c 0,-0.39077 -0.319716,-0.71048 -0.71048,-0.71048 -0.390763,0 -0.710479,0.31971 -0.710479,0.71048 0,0.39076 0.319716,0.71048 0.710479,0.71048 0.390764,0 0.71048,-0.31972 0.71048,-0.71048 z"
     style="fill:#cccccc;stroke:#d7d7d7;stroke-width:0.71048" />
  <path
     id="path1114"
     d="m 76.417704,261.86131 c -0.463825,-0.55888 -0.742759,-2.23739 -0.619854,-3.73002 0.212951,-2.5862 0.351145,-2.7244 2.937346,-2.93735 1.492635,-0.1229 3.171142,0.15603 3.730017,0.61986 1.235003,1.02496 1.340577,5.03405 0.163561,6.21107 -1.177016,1.17701 -5.186108,1.07144 -6.21107,-0.16356 z m 3.511248,-3.24675 c 0,-0.39076 -0.140989,-0.71047 -0.313309,-0.71047 -0.172321,0 -0.510905,0.31971 -0.75241,0.71047 -0.241506,0.39077 -0.100516,0.71048 0.313309,0.71048 0.413826,0 0.75241,-0.31971 0.75241,-0.71048 z"
     style="fill:#cccccc;stroke:#d7d7d7;stroke-width:0.71048" />
  <path
     id="path1116"
     d="m 45.293073,277.06489 c -1.267911,-0.50963 -1.598579,-1.20574 -1.598579,-3.36526 0,-3.29834 0.99682,-4.42787 3.907637,-4.42787 2.909705,0 3.907638,1.12943 3.907638,4.42256 0,2.26322 -0.304602,2.83321 -1.822451,3.4103 -2.127213,0.80876 -2.286907,0.80732 -4.394245,-0.0397 z m 2.664298,-3.53025 c 0,-0.39077 -0.319716,-0.71048 -0.710479,-0.71048 -0.390764,0 -0.71048,0.31971 -0.71048,0.71048 0,0.39076 0.319716,0.71048 0.71048,0.71048 0.390763,0 0.710479,-0.31972 0.710479,-0.71048 z"
     style="fill:#cccccc;stroke:#d7d7d7;stroke-width:0.71048" />
  <path
     id="path1118"
     d="m 44.446124,290.99097 c -0.463825,-0.55888 -0.74276,-2.23738 -0.619855,-3.73002 l 0.223465,-2.71388 h 3.552397 3.552398 l 0.223465,2.71388 c 0.122905,1.49264 -0.15603,3.17114 -0.619855,3.73002 -1.090037,1.31341 -5.221978,1.31341 -6.312015,0 z m 3.511247,-3.24674 c 0,-0.39077 -0.140989,-0.71048 -0.313309,-0.71048 -0.17232,0 -0.510905,0.31971 -0.75241,0.71048 -0.241505,0.39076 -0.100516,0.71048 0.313309,0.71048 0.413826,0 0.75241,-0.31972 0.75241,-0.71048 z"
     style="fill:#cccccc;stroke:#d7d7d7;stroke-width:0.71048" />
  <path
     id="path1120"
     d="m 98.934281,226.11545 c 2.833039,-0.13486 7.468919,-0.13486 10.301949,0 2.83304,0.13486 0.5151,0.24519 -5.15097,0.24519 -5.666077,0 -7.984017,-0.11033 -5.150979,-0.24519 z"
     style="fill:#cccccc;stroke:#d7d7d7;stroke-width:0.71048" />
</svg>
